<svg xmlns="http://www.w3.org/2000/svg" viewBox="0 0 256 256" fill="white">
  <path d="M128 0C57.308 0 0 57.308 0 128c0 22.588 6.017 44.65 17.422 63.947L0 256l66.029-17.064C84.735 250.085 106.183 256 128 256c70.692 0 128-57.308 128-128S198.692 0 128 0zm0 232c-19.225 0-38.144-5.158-54.595-14.93l-3.895-2.329-39.168 10.125 10.452-38.02-2.503-3.929C30.413 164.674 24 146.748 24 128c0-57.346 46.654-104 104-104s104 46.654 104 104-46.654 104-104 104zm59.885-78.126c-3.276-1.638-19.376-9.574-22.386-10.667-3.009-1.094-5.205-1.639-7.401 1.637-2.196 3.277-8.487 10.668-10.401 12.864-1.915 2.196-3.83 2.469-7.106.83-3.277-1.637-13.834-5.104-26.354-16.273-9.747-8.707-16.323-19.453-18.239-22.729-1.915-3.276-.203-5.05 1.435-6.686 1.474-1.472 3.277-3.83 4.915-5.746 1.637-1.915 2.196-3.276 3.276-5.472 1.093-2.196.547-4.11-.274-5.747-.83-1.637-7.401-17.816-10.135-24.352-2.67-6.439-5.39-5.561-7.401-5.672-1.915-.098-4.11-.12-6.307-.12s-5.747.83-8.754 4.11c-3.008 3.277-11.431 11.16-11.431 27.179s11.699 31.531 13.344 33.727c1.637 2.196 23.048 35.157 55.847 49.318 7.8 3.362 13.868 5.372 18.621 6.869 7.825 2.495 14.946 2.143 20.562 1.303 6.273-.938 19.376-7.925 22.1-15.583 2.724-7.657 2.724-14.214 1.91-15.583-.83-1.366-2.993-2.196-6.27-3.833z"></path>
</svg>
